<svg id="Capa_1" data-name="Capa 1" xmlns="http://www.w3.org/2000/svg" viewBox="0 0 512 513"><path d="M353,304l-25-14,21-12c3-2,4-6,2-9a7,7,0,0,0-9-2l-28,16-44-26,44-25,28,16h3a8,8,0,0,0,6-3c2-3,1-8-2-9l-21-12,25-14a7,7,0,0,0,2-9,7,7,0,0,0-9-2l-25,14V186a7,7,0,0,0-7-7,7,7,0,0,0-7,7v33l-44,25V192l28-16a7,7,0,0,0,3-9,7,7,0,0,0-9-2l-21,12V149a7,7,0,0,0-7-7,7,7,0,0,0-7,7v28l-22-12a7,7,0,0,0-9,2,7,7,0,0,0,3,9l28,16v51l-45-26V186c0-4-3-7-7-7h0a7,7,0,0,0-7,7v24l-24-14a7,7,0,0,0-9,2,7,7,0,0,0,2,9l24,14-21,13c-3,2-4,6-2,9a6,6,0,0,0,6,3h4l28-17,45,26-45,26-28-17c-3-2-8-1-9,2a7,7,0,0,0,2,9l21,13-24,14a7,7,0,0,0-2,9,6,6,0,0,0,6,3h3l24-14v24a7,7,0,0,0,7,7h0a7,7,0,0,0,7-7V294l45-26v51l-28,16a7,7,0,0,0-3,9,6,6,0,0,0,6,3h3l22-12v29a7,7,0,0,0,7,7,7,7,0,0,0,7-7V335l21,12h3a6,6,0,0,0,6-3,7,7,0,0,0-3-9l-28-16V268l44,25v33a7,7,0,0,0,7,7,7,7,0,0,0,7-7V301l25,15h4a6,6,0,0,0,6-3A7,7,0,0,0,353,304Z"/><line x1="256" y1="2" x2="256" y2="36" fill="none" stroke="#000" stroke-miterlimit="10" stroke-width="15"/><line x1="256" y1="42" x2="256" y2="86" fill="none" stroke="#000" stroke-miterlimit="10" stroke-width="15"/><line x1="256" y1="92" x2="256" y2="136" fill="none" stroke="#000" stroke-miterlimit="10" stroke-width="15"/><line x1="256" y1="379" x2="256" y2="413" fill="none" stroke="#000" stroke-miterlimit="10" stroke-width="15"/><line x1="256" y1="419" x2="256" y2="463" fill="none" stroke="#000" stroke-miterlimit="10" stroke-width="15"/><line x1="256" y1="469" x2="256" y2="513" fill="none" stroke="#000" stroke-miterlimit="10" stroke-width="15"/><line x1="10" y1="255" x2="44" y2="255" fill="none" stroke="#000" stroke-miterlimit="10" stroke-width="15"/><line x1="50" y1="255" x2="94" y2="255" fill="none" stroke="#000" stroke-miterlimit="10" stroke-width="15"/><line x1="100" y1="255" x2="144" y2="255" fill="none" stroke="#000" stroke-miterlimit="10" stroke-width="15"/><line x1="369" y1="255" x2="403" y2="255" fill="none" stroke="#000" stroke-miterlimit="10" stroke-width="15"/><line x1="409" y1="255" x2="453" y2="255" fill="none" stroke="#000" stroke-miterlimit="10" stroke-width="15"/><line x1="459" y1="255" x2="503" y2="255" fill="none" stroke="#000" stroke-miterlimit="10" stroke-width="15"/><path d="M200,143h0V40h0c-3-13-33-23-68-23S66,25,63,39h0V58H43v3h0v8H29v3h0v95h4V73H43v87h4V73H63v69h0c3,13,32,23,68,23S197,157,200,143ZM48,68V62H63v6H48Zm128-7v8l-13,3V65ZM162,76l13-3v6l-13,3V76h0Zm0,11,13-3v6l-13,3V87h0Zm0,11,13-3v6l-13,3V98h0Zm0,11,13-3v6l-13,3v-6h0Zm0,11,13-3v6l-13,3v-6h0Zm0,11,13-3v6l-13,3v-6h0Zm0,11,13-3v6l-13,3v-6Zm0,11,13-3v6l-13,3v-7Zm33-10h0c-1,4-6,8-15,12V60a46,46,0,0,0,15-8v89h0ZM69,41h0c2-9,27-20,63-20s62,10,63,20h0c0,10-26,21-63,21S68,52,68,42h1Zm0,101h0V52c9,9,31,16,63,16l26-2v93l-26,2C96,161,70,151,69,141Z"/><path d="M101,48v7h11V48c5-1,9-3,9-6s-8-7-15-7-15,2-15,7S96,48,101,48Zm7,3h-3V49h3v3Zm-1-12c7,0,10,2,11,3s-3,2-7,2h-6c-5,0-7-2-7-2s4-2,11-2h0Z"/><path d="M127,37v7h11V37c5-1,9-3,9-6s-8-7-15-7-15,2-15,7S121,37,127,37Zm7,3h-3V38h3v3Zm-1-12c7,0,10,2,11,3s-3,2-7,2h-6c-5,0-7-2-7-2s4-2,10-2h0Z"/><path d="M371,49" fill="none" stroke="#211915" stroke-miterlimit="10" stroke-width="6"/><path d="M371,49" fill="#fff" stroke="#211915" stroke-miterlimit="10" stroke-width="6"/><path d="M307,113c-7,0-10-12-10-24s3-24,10-24,10,12,10,24S314,113,307,113Zm0-42c-1,1-4,7-4,18s3,18,4,18,4-7,4-18S308,72,307,71Z" fill="#211915"/><path d="M411,100" fill="none" stroke="#211915" stroke-miterlimit="10" stroke-width="6"/><path d="M392,67" fill="none" stroke="#211915" stroke-miterlimit="10" stroke-width="6"/><path d="M478,47H452c-8-17-21-26-35-26H369c-14,0-27,10-35,26H306c-11,1-17,22-17,42s6,42,18,42h27c8,16,21,26,35,26h48c14,0,27-10,35-26h24s14-9,14-43S478,47,478,47ZM417,26c12,0,24,9,31,25H407c-5-11-12-20-20-25h30Zm32,30-8,8-45,2,10-10h43ZM370,26c13,0,25,10,32,27l-10,9c-5-10-14-16-23-16H341C348,33,358,26,370,26ZM294,89c0-23,8-37,13-37s12,14,12,37-7,36-12,36S294,112,294,89Zm47,41h29c12,0,22-10,26-26h12c-4,28-20,48-38,48S348,144,341,131Zm77,20H387c13-9,23-26,26-49h42C452,130,436,151,417,151Zm58-26H455a91,91,0,0,0,6-27V96H414l-23,2v2c-3,14-12,24-21,24H316c6-8,9-22,9-37s-3-29-9-37h54c8,0,15,6,19,16l2,4,53-2,13-14h0l-2-4h20c2,2,10,9,10,37S477,124,475,126Z" fill="#211915"/><ellipse cx="126" cy="409" rx="3" ry="8" fill="#010002"/><ellipse cx="123" cy="383" rx="3" ry="8" fill="#010002"/><ellipse cx="111" cy="366" rx="3" ry="8" fill="#010002"/><ellipse cx="123" cy="436" rx="3" ry="8" fill="#010002"/><ellipse cx="111" cy="456" rx="3" ry="8" fill="#010002"/><ellipse cx="95" cy="466" rx="3" ry="8" fill="#010002"/><ellipse cx="95" cy="357" rx="3" ry="8" fill="#010002"/><path d="M207,368H192l-4-7c-9-14-21-21-33-21H95c-7,0-15,3-22,8s-11,12-15,20H29c-11,1-17,23-17,43s6,41,17,43H59c9,17,22,27,37,27h59c12,0,24-8,33-21l4-6h15c2,0,15-8,15-44S208,368,207,368ZM96,374c2,2,15,10,15,39s-13,36-15,37H40c6-8,9-23,9-38s-3-30-9-38H96ZM18,412c0-24,7-38,12-38h0c5,0,12,15,12,38s-6,35-11,37H28C24,447,18,433,18,412Zm47,43H75c0,5,2,8,3,8s3-4,3-8H98c2,0,19-7,19-42s-18-44-19-44H81v-2c0-4-1-8-3-8s-3,4-3,8v2H64c8-14,20-23,31-23,23,0,42,30,42,66s-16,62-37,66H96C84,478,73,470,65,455Zm47,22c6-4,12-9,16-17s13-31,13-50-5-36-13-50a50,50,0,0,0-15-16h3c23,0,42,29,42,66s-19,66-42,66h-4Zm21,0a52,52,0,0,0,16-16c9-13,13-31,13-50s-5-36-13-50a50,50,0,0,0-16-16h0c23,0,42,29,42,66s-19,66-42,66h-1Zm21,0h-4a52,52,0,0,0,16-16c9-13,13-31,13-50s-5-36-13-50a50,50,0,0,0-16-16h4c23,0,42,29,42,66S177,477,155,477Zm50-27H194c5-11,7-25,7-39a99,99,0,0,0-7-38h11c2,2,11,9,11,38S207,449,205,450Z" fill="#010002"/><path d="M40,412c0-12-3-25-10-25s-10,13-10,25,3,25,10,25S40,424,40,412Zm-15,0c0-12,3-18,5-19s5,7,5,19-3,20-5,19S25,424,25,412Z" fill="#010002"/><path d="M449,418v-3a10,10,0,0,0-20,0v3H418l-6-6h-2V395h7a10,10,0,0,0,0-20H403v-7h7a3,3,0,0,0,3-3V356h20a10,10,0,1,0,0-20H348a10,10,0,0,0,0,20h20v10a3,3,0,0,0,3,3h7v7H364a10,10,0,1,0,0,20h7v16h-2l-6,6H351v-3a10,10,0,0,0-20,0v3H292v46h39v3a10,10,0,1,0,20,0v-3h12a36,36,0,0,0,51,5l5-5h12v3a10,10,0,1,0,20,0v-3h39V418H449ZM331,457H298V425h33v33Zm13,10a3,3,0,1,1-7,0V415a3,3,0,0,1,3-3h2v55Zm3-118a3,3,0,0,1,0-7h85a3,3,0,1,1,0,7H348Zm26,13v-7h33v7H374Zm23,7v7H384v-7h13Zm-33,20a3,3,0,0,1-3-3v-2h55a3,3,0,0,1,3,3v2H364Zm66,69H414a29,29,0,0,1-41,6l-6-6H351V425h16a29,29,0,0,1,9-8,3,3,0,0,0,2-3V395h26v18a3,3,0,0,0,2,3l3,2,6,6h16v33Zm13,10a3,3,0,1,1-7,0V412h2a3,3,0,0,1,3,3v53Zm39-10H449V425h33v33Z" fill="#010002"/></svg>
