<svg id="flange" xmlns="http://www.w3.org/2000/svg" viewBox="0 0 512 512"><ellipse cx="280" cy="251" rx="8" ry="19" fill="#010002"/><ellipse cx="272" cy="190" rx="8" ry="19" fill="#010002"/><ellipse cx="244" cy="147" rx="8" ry="19" fill="#010002"/><ellipse cx="272" cy="316" rx="8" ry="19" fill="#010002"/><ellipse cx="244" cy="365" rx="8" ry="19" fill="#010002"/><ellipse cx="204" cy="388" rx="8" ry="19" fill="#010002"/><ellipse cx="204" cy="127" rx="8" ry="19" fill="#010002"/><path d="M475,152H438v3l-10-18c-21-33-50-51-80-51H298l-21,3a76,76,0,0,0-21-3H205c-18,0-37,8-52,20s-27,28-37,48H45C18,156,3,208,3,258S18,357,44,362h74c21,41,54,65,88,65h50a74,74,0,0,0,21-3,76,76,0,0,0,21,3h50c30,0,59-19,80-51l9-16v3h36v-2h1c4-1,35-20,35-105S476,153,475,152ZM206,167c6,5,37,23,37,93s-31,86-36,89H71c14-19,22-56,22-91s-8-72-22-91H206ZM18,259c0-57,17-91,30-91h0c13,0,30,35,30,92s-15,84-26,90H44C33,343,18,310,18,259ZM132,363h24s0,1,0,1c0,11,4,19,8,19s8-9,8-19,0-1,0-1h38v-2h1c4-1,46-17,46-102s-44-105-45-106H172a43,43,0,0,0,0-6c0-10-4-19-8-19s-8,9-8,19a43,43,0,0,0,0,6H130c19-34,47-55,76-55,55,0,100,72,100,160s-39,149-89,158H206C178,417,151,397,132,363Zm114,53c15-9,28-23,39-40,21-32,32-75,32-120s-11-87-32-120c-11-17-23-29-37-38h8c55,0,100,71,100,159S311,416,256,416H246Zm52,0c14-9,28-22,39-39,21-32,32-75,32-120s-11-87-32-120c-11-17-24-30-38-39h0c55,0,101,71,101,159S354,416,299,416h-2Zm51,0h-9c15-9,28-22,39-39,21-32,32-75,32-120s-11-87-32-120c-11-17-24-30-38-39h8c55,0,100,71,100,159S403,416,348,416Zm121-66H442c12-27,18-60,18-93s-6-64-17-91h26c5,5,26,22,26,92S474,347,469,350Z" fill="#010002"/><path d="M73,260c0-29-8-60-25-60s-25,31-25,60,8,60,25,60S73,289,73,260Zm-36,0c0-29,8-44,11-46s11,17,11,46-8,48-11,46S37,289,37,260Z" fill="#010002"/></svg>
