<svg id="insulation" xmlns="http://www.w3.org/2000/svg" viewBox="0 0 506 506"><path d="M204,139" transform="translate(0 -1)" fill="none" stroke="#211915" stroke-miterlimit="10" stroke-width="6"/><path d="M204,139" transform="translate(0 -1)" fill="#fff" stroke="#211915" stroke-miterlimit="10" stroke-width="6"/><path d="M45,299c-17,0-25-31-25-60s8-60,25-60,25,31,25,60S62,299,45,299Zm0-106c-3,2-11,17-11,46s8,44,11,46,11-17,11-46S48,195,45,193Z" transform="translate(0 -1)" fill="#211915"/><path d="M305,265" transform="translate(0 -1)" fill="none" stroke="#211915" stroke-miterlimit="10" stroke-width="6"/><path d="M257,184" transform="translate(0 -1)" fill="none" stroke="#211915" stroke-miterlimit="10" stroke-width="6"/><path d="M472,132H409c-21-42-53-66-88-66H201c-35,0-67,24-88,66H43C15,135,0,188,0,238S16,343,45,343h68c21,41,52,65,87,65H321c36,0,67-25,88-64h61s36-22,36-107S473,133,472,132ZM321,81c31,0,59,23,78,62H295c-13-28-31-49-50-62h77Zm80,76-20,21-112,4,25-25H401ZM202,81c33,0,63,25,81,68l-24,23c-13-25-34-40-57-40H129C147,99,172,81,202,81ZM12,239c0-57,20-92,33-92s30,35,30,92-18,89-30,89S12,296,12,239ZM129,343h73c29,0,55-26,65-66l30-3c-11,70-50,121-96,121C174,394,148,376,129,343Zm192,51H246c33-22,58-66,65-122l105-2C407,341,367,394,321,394Zm145-64H416a229,229,0,0,0,16-67v-8l-120,3-58,6v5c-8,36-30,60-53,60H68c15-19,22-56,22-92s-8-73-23-92H202c20,0,38,15,48,40l4,10,133-4,33-35h0l-4-10h50c5,5,26,22,26,92S471,327,466,330Z" transform="translate(0 -1)" fill="#211915"/></svg>
