<svg version="1.1" id="leakage" xmlns="http://www.w3.org/2000/svg" xmlns:xlink="http://www.w3.org/1999/xlink" x="0px" y="0px"
	 viewBox="0 0 512 512" style="enable-background:new 0 0 512 512;" xml:space="preserve">
<title>leakage</title>
<ellipse class="st0" cx="272" cy="115" rx="8" ry="19"/>
<ellipse class="st0" cx="272" cy="241" rx="8" ry="19"/>
<ellipse class="st0" cx="204" cy="313" rx="8" ry="19"/>
<ellipse class="st0" cx="204" cy="52" rx="8" ry="19"/>
<path class="st0" d="M475,77h-37v3l-10-18c-21-33-50-51-80-51h-50l-21,3c-6.8-2-13.9-3-21-3h-51c-18,0-37,8-52,20s-27,28-37,48H45
	C18,81,3,133,3,183s15,99,41,104h74c21,41,54,65,88,65h50c7.1,0,14.2-1,21-3c6.8,2,13.9,3,21,3h50c30,0,59-19,80-51l9-16v3h36v-2h1
	c4-1,35-20,35-105S476,78,475,77z M206,92c6,5,37,23,37,93s-31,86-36,89H71c14-19,22-56,22-91s-8-72-22-91H206z M18,184
	c0-57,17-91,30-91l0,0c13,0,30,35,30,92s-15,84-26,90h-8C33,268,18,235,18,184z M132,288l78-2h1c4-1,46-17,46-102S213,79,212,78h-82
	c19-34,47-55,76-55c55,0,100,72,100,160s-39,149-89,158h-11C178,342,151,322,132,288z M246,341c15-9,28-23,39-40c21-32,32-75,32-120
	s-11-87-32-120c-11-17-23-29-37-38h8c55,0,100,71,100,159s-45,159-100,159H246z M298,341c15.6-10.1,28.9-23.4,39-39
	c21-32,32-75,32-120s-11-87-32-120c-11-17-24-30-38-39l0,0c55,0,101,71,101,159s-46,159-101,159H298z M349,341h-9
	c15.3-8.7,28.3-21.7,39-39c21-32,32-75,32-120s-11-87-32-120c-11-17-24-30-38-39h8c55,0,100,71,100,159s-46,159-101,159H349z
	 M470,275h-28c12-27,18-60,18-93s-6-64-17-91h26c5,5,26,22,26,92s-21,89-26,92H470z"/>
<path class="st0" d="M73,185c0-29-8-60-25-60s-25,31-25,60s8,60,25,60S73,214,73,185z M37,185c0-29,8-44,11-46s11,17,11,46
	s-8,48-11,46S37,214,37,185z"/>
<path d="M200,503c-29.8,0-54-24.2-54-54l0,0c0-28,44-85,49-91l4-2l4,2c5,6,49,63,49,91C252,478.1,229,501.9,200,503z M200,371
	c-15,20-42,60-42,78c0,23.5,19,42.5,42.5,42.5s42.5-19,42.5-42.5C242,431,215,391,200,371z"/>
<path d="M200,480c-3,1.3-6.6-0.1-7.9-3.1c-1.3-3,0.1-6.6,3.1-7.9c1.5-0.7,3.3-0.7,4.8,0c10.5,0,19-8.5,19-19l0,0
	c1.3-3,4.9-4.4,7.9-3.1c1.4,0.6,2.5,1.7,3.1,3.1C229.5,466.3,216.3,479.5,200,480z"/>
</svg>
