<svg id="leakage" xmlns="http://www.w3.org/2000/svg" viewBox="0 0 512 512"><title>leakage</title><ellipse cx="280" cy="176" rx="8" ry="19" fill="#010002"/><ellipse cx="272" cy="115" rx="8" ry="19" fill="#010002"/><ellipse cx="244" cy="72" rx="8" ry="19" fill="#010002"/><ellipse cx="272" cy="241" rx="8" ry="19" fill="#010002"/><ellipse cx="244" cy="290" rx="8" ry="19" fill="#010002"/><ellipse cx="204" cy="313" rx="8" ry="19" fill="#010002"/><ellipse cx="204" cy="52" rx="8" ry="19" fill="#010002"/><path d="M475,77H438v3L428,62c-21-33-50-51-80-51H298l-21,3a76,76,0,0,0-21-3H205c-18,0-37,8-52,20s-27,28-37,48H45C18,81,3,133,3,183s15,99,41,104h74c21,41,54,65,88,65h50a74,74,0,0,0,21-3,76,76,0,0,0,21,3h50c30,0,59-19,80-51l9-16v3h36v-2h1c4-1,35-20,35-105S476,78,475,77ZM206,92c6,5,37,23,37,93s-31,86-36,89H71c14-19,22-56,22-91s-8-72-22-91H206ZM18,184c0-57,17-91,30-91h0c13,0,30,35,30,92s-15,84-26,90H44C33,268,18,235,18,184ZM132,288h24c0,11,4,19,8,19s8-9,8-19h38v-2h1c4-1,46-17,46-102S213,79,212,78H172a43,43,0,0,0,0-6c0-10-4-19-8-19s-8,9-8,19a43,43,0,0,0,0,6H130c19-34,47-55,76-55,55,0,100,72,100,160s-39,149-89,158H206C178,342,151,322,132,288Zm114,53c15-9,28-23,39-40,21-32,32-75,32-120S306,94,285,61c-11-17-23-29-37-38h8c55,0,100,71,100,159S311,341,256,341H246Zm52,0a132,132,0,0,0,39-39c21-32,32-75,32-120S358,95,337,62c-11-17-24-30-38-39h0c55,0,101,71,101,159S354,341,299,341h-1Zm51,0h-9q23-13,39-39c21-32,32-75,32-120S400,95,379,62c-11-17-24-30-38-39h8c55,0,100,71,100,159S403,341,348,341h1Zm121-66H442c12-27,18-60,18-93s-6-64-17-91h26c5,5,26,22,26,92s-21,89-26,92h1Z" fill="#010002"/><path d="M73,185c0-29-8-60-25-60s-25,31-25,60,8,60,25,60S73,214,73,185Zm-36,0c0-29,8-44,11-46s11,17,11,46-8,48-11,46S37,214,37,185Z" fill="#010002"/><path d="M200,503a54,54,0,0,1-54-54c0-28,44-85,49-91l4-2,4,2c5,6,49,63,49,91A54,54,0,0,1,200,503Zm0-132c-15,20-42,60-42,78a42,42,0,0,0,85,0C242,431,215,391,200,371Z"/><path d="M200,480a6,6,0,1,1,0-11,19,19,0,0,0,19-19,6,6,0,0,1,11,0A31,31,0,0,1,200,480Z"/></svg>
