<svg version="1.1" id="pipe-insulation" xmlns="http://www.w3.org/2000/svg" xmlns:xlink="http://www.w3.org/1999/xlink" x="0px"
	 y="0px" viewBox="0 0 512 512" style="enable-background:new 0 0 512 512;" xml:space="preserve">
<path d="M476,169h-63c-21-42-53-66-88-66H205c-35,0-67,24-88,66H47c-28,3-43,56-43,106s16,105,45,105h68
	c21,41,52,65,87,65h121c36,0,67-25,88-64h61c0,0,36-22,36-107S477,170,476,169z M45.5,216.5C30.9,220.4,24,249.1,24,276
	s6.9,55.6,21.5,59.5v28.7C33.3,358.9,16,327.8,16,276c0-52.1,16.7-85.8,29.5-91.2V216.5z M162.1,169l23-47.8
	c6.2-1.9,12.7-3,19.4-3.1l-23.6,51H162.1z M216.2,118.8c5.7,0.9,11.3,2.6,16.7,4.9l-22.1,45.5c-1.6-0.1-3.2-0.2-4.8-0.2h-13
	L216.2,118.8z M242.6,129c6.6,4.2,12.9,9.5,18.8,15.8l-18.7,38.3c-6.4-5.4-13.4-9.3-20.8-11.6L242.6,129z M269.1,154.1
	c6.8,9.1,12.8,19.8,17.9,31.9l-24,23c-3.5-6.7-7.5-12.6-12-17.7L269.1,154.1z M298,194h107l-20,21l-112,4L298,194z M325,118
	c31,0,59,23,78,62H299c-6.8-14.7-15-27.4-24-38.1l0.3-0.7l-1.6-0.8c-7.8-9.1-16.2-16.6-24.8-22.5H325z M169.5,128.2L149.9,169H133
	C143.1,150.5,155.4,136.7,169.5,128.2z M51.9,364.4v-28.7c15-3.3,22.1-32.4,22.1-59.7s-7.1-56.4-22.1-59.7v-31.8
	C64.4,189.2,79,223.1,79,276C79,328.6,63.7,359.9,51.9,364.4z M165.5,380l15.5,46.5c-7.1-3-14-7.3-20.5-12.7l-10-33.8H165.5z
	 M139.1,380l4.9,16.4c-3.9-5-7.5-10.4-11-16.4H139.1z M194.1,430.6L177.1,380H195l21.2,51c-3.7,0.7-7.4,1-11.2,1
	C201.3,431.9,197.7,431.4,194.1,430.6z M291.3,350.2l-20.4-35.7c0-0.2,0.1-0.3,0.1-0.5l30-3C298.8,324.9,295.5,338,291.3,350.2z
	 M266.4,328.7l19.8,34.6c-2.8,6.4-5.8,12.4-9.1,18.1l-19.9-34.2C260.7,341.6,263.8,335.4,266.4,328.7z M250.2,357l20.3,34.9
	c-4.6,6.6-9.6,12.5-14.9,17.6l-20.1-39C240.8,366.9,245.7,362.4,250.2,357z M225.9,375.8l21.2,41.1c-6.4,4.9-13.1,8.6-20.1,11.2
	l-20-48.1C213.4,379.9,219.8,378.4,225.9,375.8z M325,431h-75c33-22,58-66,65-122l105-2C411,378,371,431,325,431z M470,367h-50
	c8.7-21.4,14.1-44,16-67v-8l-120,3l-58,6v5c-8,36-30,60-53,60H72c15-19,22-56,22-92s-8-73-23-92h135c20,0,38,15,48,40l4,10l133-4
	l33-35l-4-10h50c5,5,26,22,26,92S475,364,470,367z"/>
</svg>
