<svg version="1.1" id="pipe-insulation" xmlns="http://www.w3.org/2000/svg" xmlns:xlink="http://www.w3.org/1999/xlink" x="0px"
	 y="0px" viewBox="0 0 512 512" style="enable-background:new 0 0 512 512;" xml:space="preserve">
<path d="M476,126.2h-63c-21-44.4-53-69.7-88-69.7H205c-35,0-67,25.3-88,69.7H47c-28,3.2-43,59.1-43,111.9S20,349,49,349h68
	c21,43.3,52,68.6,87,68.6h121c36,0,67-26.4,88-67.6h61c0,0,36-23.2,36-113S477,127.2,476,126.2z M298,152.6h107l-20,22.2L273,179
	L298,152.6z M263,168.4c-3.5-7.1-7.5-13.3-12-18.7l18.1-39.3c6.8,9.6,12.8,20.9,17.9,33.7L263,168.4z M325,72.2v0.1
	c31,0,59,24.3,78,65.5H299c-6.8-15.5-15-28.9-24-40.2l0.3-0.7l-1.6-0.8c-7.8-9.6-16.2-17.5-24.8-23.8H325z M261.4,100.6L242.7,141
	c-6.4-5.7-13.4-9.8-20.8-12.2l20.7-44.9C249.2,88.4,255.5,93.9,261.4,100.6z M216.2,73.1c5.7,1,11.3,2.7,16.7,5.2l-22.1,48
	c-1.6-0.1-3.2-0.2-4.8-0.2h-13L216.2,73.1z M204.5,72.4l-23.6,53.9h-18.8v-0.1l23-50.5C191.3,73.7,197.8,72.5,204.5,72.4z
	 M169.5,83.1l-19.6,43.1H133C143.1,106.6,155.4,92,169.5,83.1z M48.5,289c-3-2.2-11-18.7-11-50.5c0-31.8,8-48.3,11-50.5
	c3,2.2,11,18.7,11,50.5C59.5,270.3,51.5,291.2,48.5,289z M16,239.1c0-55,16.7-90.6,29.5-96.3V173c-14.9,3.8-22,35.6-22,65.5
	c0,29.9,7.1,61.7,22,65.5v28.3C33.3,326.7,16,293.8,16,239.1z M51.9,332.5v-28.7c14.7-4.2,21.6-35.7,21.6-65.4
	c0-29.6-6.9-61.1-21.6-65.4v-30.6c12.5,5,27.1,40.8,27.1,96.6C79,294.7,63.7,327.7,51.9,332.5z M133,349h6.1l4.9,17.3
	C140.1,361,136.5,355.3,133,349z M160.5,384.7l-10-35.7h15l15.5,49.1C173.9,394.9,167,390.4,160.5,384.7z M205,403.9
	c-3.7-0.1-7.3-0.6-10.9-1.5l-17-53.4H195l21.2,53.9C212.5,403.6,208.8,403.9,205,403.9z M227,399.8L207,349
	c6.4-0.1,12.8-1.7,18.9-4.4l21.2,43.4C240.7,393.1,234,397,227,399.8z M286.2,331.3c-2.8,6.8-5.8,13.1-9.1,19.1l-19.9-36.1
	c3.5-5.9,6.6-12.5,9.2-19.5L286.2,331.3z M270.9,279.8c0-0.2,0.1-0.3,0.1-0.5l30-3.2c-2.2,14.7-5.5,28.5-9.7,41.4L270.9,279.8z
	 M270.5,361.5c-4.6,7-9.6,13.2-14.9,18.6l-20.1-41.2c5.3-3.8,10.2-8.6,14.7-14.3L270.5,361.5z M325,402.8h-75
	c33-23.2,58-69.7,65-128.8l105-2.1C411,346.9,371,402.8,325,402.8z M470,335.2h-50c8.7-22.6,14.1-46.5,16-70.8V256l-120,3.2l-58,6.3
	v5.3c-8,38-30,63.4-53,63.4H72c15-20.1,22-59.1,22-97.2s-8-77.1-23-97.2h135c20,0,38,15.8,48,42.2l4,10.6l133-4.2l33-37l-4-10.6h50
	c5,5.3,26,23.2,26,97.2S475,332.1,470,335.2z"/>
</svg>
