<svg version="1.1" id="others" xmlns="http://www.w3.org/2000/svg" xmlns:xlink="http://www.w3.org/1999/xlink" x="0px" y="0px"
	 viewBox="0 0 512 512" style="enable-background:new 0 0 512 512;" xml:space="preserve">
<g>
	<g>
		<g>
			<rect x="230.7" y="357.9" width="50.8" height="50.8"/>
		</g>
	</g>
	<g>
		<g>
			<path d="M255.8,5.3C116.7,5.3,4,118.1,4,257.2S116.7,509,255.8,509s251.8-112.8,251.8-251.8S394.9,5.3,255.8,5.3z M255.8,463.4
				c-113.9,0-206.3-92.3-206.3-206.3S141.9,50.9,255.8,50.9c113.9,0.1,206.1,92.4,206.3,206.3C462.1,371.1,369.7,463.4,255.8,463.4z
				"/>
		</g>
	</g>
	<g>
		<g>
			<path d="M354.8,182.8c-13.1-54.3-67.8-87.7-122.4-74.7c-45.8,10.9-78.1,51.8-77.9,98.7h50.8c2.4-27.9,27-48.6,55.1-46.2
				c28,2.4,48.8,26.9,46.4,54.8c-5.2,25.1-27.8,42.8-53.6,41.9c-12.5,0-22.6,10.1-22.6,22.5l0,0v53.3h50.8v-28.8
				C335.1,290.6,367.8,236.5,354.8,182.8z"/>
		</g>
	</g>
	<g>
	</g>
	<g>
	</g>
	<g>
	</g>
	<g>
	</g>
	<g>
	</g>
	<g>
	</g>
	<g>
	</g>
	<g>
	</g>
	<g>
	</g>
	<g>
	</g>
	<g>
	</g>
	<g>
	</g>
	<g>
	</g>
	<g>
	</g>
	<g>
	</g>
</g>
</svg>
