<svg version="1.1" id="structural" xmlns="http://www.w3.org/2000/svg" xmlns:xlink="http://www.w3.org/1999/xlink" x="0px" y="0px"
	 viewBox="0 0 512 512" style="enable-background:new 0 0 512 512;" xml:space="preserve">
<g>
				<path d="M512,59.2V8.5c0-0.1-0.1-0.2-0.1-0.4c0.2-0.7,0.2-1.5-0.2-2.1l-0.4-0.7c0-0.1-0.1-0.1-0.1-0.2c-0.4-0.8-0.9-1.6-1.5-2.3
					c-0.2-0.2-0.4-0.4-0.7-0.6c-0.5-0.5-1.1-0.9-1.8-1.2c-0.3-0.1-0.5-0.3-0.8-0.4c-0.9-0.4-2-0.6-3-0.6H230.5c-2.3,0-4.4,0.9-6,2.5
					L2.5,224.3l0,0c-0.7,0.7-1.2,1.5-1.6,2.4c-0.4,1-0.6,2-0.7,3.1c0,0.2-0.1,0.3-0.1,0.5v51.2c0,4.7,3.8,8.5,8.5,8.5h64
					c21.2,0,38.4,17.2,38.4,38.4v9.3L2.5,446c-1.6,1.6-2.5,3.8-2.5,6v51.4c0,4.7,3.8,8.5,8.5,8.5h273.1c1.2,0,2.3-0.2,3.3-0.7
					c0.1,0,0.2-0.2,0.3-0.2c0.9-0.4,1.7-1,2.4-1.7l0.1-0.1l170.5-179.2l51.2-51.3c1.6-1.6,2.5-3.8,2.5-6v-51.3
					c0-0.1-0.1-0.2-0.1-0.4c0.2-0.7,0.2-1.5-0.2-2.1l-0.4-0.8c0-0.1-0.1-0.1-0.1-0.2c-0.8-1.7-2.2-3.2-4-4.1
					c-0.3-0.1-0.5-0.3-0.8-0.4c-0.9-0.4-2-0.6-3-0.6h-64c-0.7,0-1.4,0.2-2.1,0.4c-0.7-0.2-1.4-0.4-2.1-0.4
					c-19.9-0.1-36.5-15.4-38.1-35.2L509.5,65.3C511.1,63.7,512,61.5,512,59.2z M233.5,17h249.2l-205,205H28.5L233.5,17z M111,362.2
					v43.4c0,21.2-17.2,38.4-38.4,38.4H29.2L111,362.2z M273,495H17v-34h55.5c30.6,0,55.5-24.8,55.5-55.3v-77.5
					c0-30.5-24.9-55.2-55.5-55.3H17v-34h256v34h-55.5c-30.6,0-55.5,24.8-55.5,55.3v77.5c0,30.5,24.9,55.2,55.5,55.3H273L273,495
					L273,495z M495,269.4l-48.9,48.9L290,482.2v-26.5L458.3,279l36.7-36.7L495,269.4L495,269.4z M436.1,230c0.7,0,1.5-0.2,2.1-0.4
					c0.7,0.2,1.4,0.4,2.1,0.4h41.8l-36.7,36.7L277.6,443h-60.2c-21.2,0-38.3-17.2-38.3-38.3v-76.1c0-21.3,17.3-38.5,38.6-38.6h64.3
					c2.3,0,4.5-0.9,6.1-2.5l95.5-95.5C391,214.7,412.2,230,436.1,230z M495,56L382.2,168.9l0,0L290,261V234L495,29L495,56L495,56z"
					/>
				<path d="M216.2,401.2c-3.2-1.3-6.9-0.6-9.3,1.9c-1.6,1.6-2.4,3.8-2.5,6.1c0,4.7,3.8,8.5,8.5,8.5c4.7,0,8.5-3.8,8.5-8.5
					C221.5,405.6,219.4,402.5,216.2,401.2z"/>
				<path d="M249.1,365.1c-3-0.7-6.1,0.2-8.2,2.4l0,0l-8.5,8.9c-3.2,3.4-3.1,8.8,0.3,12.1s8.8,3.1,12.1-0.3l8.5-8.9
					c2.1-2.2,2.9-5.4,2-8.3C254.4,368,252.1,365.8,249.1,365.1z"/>
				<path d="M275,331.7l-8.5,8.9c-3.3,3.4-3.1,8.8,0.3,12.1s8.8,3.1,12.1-0.3l8.5-8.9c3.3-3.4,3.1-8.8-0.3-12.1
					C283.7,328.2,278.3,328.3,275,331.7z"/>
				<path d="M309.2,296l-8.5,8.9c-2.4,2.5-3,6.1-1.7,9.3s4.4,5.2,7.8,5.2c2.3,0,4.6-1,6.2-2.6l8.5-8.9c3.3-3.4,3.1-8.8-0.3-12.1
					C317.8,292.4,312.4,292.5,309.2,296z"/>
				<path d="M351.5,257.8c-3-0.7-6.1,0.2-8.2,2.4l-8.5,8.9c-2.4,2.5-3,6.1-1.7,9.3s4.4,5.2,7.8,5.2c2.3,0,4.6-1,6.2-2.6l8.5-8.9
					c2.1-2.2,2.9-5.4,2-8.3S354.5,258.5,351.5,257.8z"/>
				<path d="M371.8,231.4c-3.2,1.3-5.3,4.5-5.3,7.9c0,2.2,0.9,4.4,2.5,6c1.6,1.6,3.8,2.6,6.1,2.6c2.3,0,4.5-0.9,6.1-2.6
					c1.6-1.6,2.5-3.7,2.5-6c0-2.3-0.9-4.4-2.5-6.1C378.7,230.8,375,230,371.8,231.4z"/>
			</g>

</svg>
