<svg id="surface" xmlns="http://www.w3.org/2000/svg" viewBox="0 0 512 512"><title>surface</title><path d="M511,415a8,8,0,0,0,1-4V108a8,8,0,0,0-1-3h0c-10-40-97-70-204-70S113,64,103,104h0a8,8,0,0,0-1,3v53H44v8h0v24H1v8H1V484H14V205H44V464H57V205h45V411a8,8,0,0,0,1,4c10,40,96,70,204,70S501,455,511,415ZM57,192V173h45v19H57Zm382-20v23l-40,8V182Zm-40,43,40-8v19l-40,8V216Zm0,32,40-8v19l-40,8V248Zm0,32,40-8v19l-40,8V280Zm0,32,40-8v19l-40,8V312Zm0,32,40-8v19l-40,8V344Zm0,32,40-8v19l-40,8V376Zm0,32,40-8v19l-40,8V407Zm0,32,40-8v19l-40,10V439Zm97-31h0c-2,12-18,25-44,36V168c19-7,34-16,44-25V409ZM119,109h0c5-28,81-59,188-59s184,30,188,59h0v3c0,29-77,62-189,62s-189-32-189-62v-3Zm0,301h0V143c28,26,92,47,189,47a540,540,0,0,0,79-5V463a504,504,0,0,1-79,6C200,469,123,438,119,410Z"/><path d="M217,132v22h33V132c15-3,28-9,28-19s-23-21-45-21-45,6-45,21S202,130,217,132Zm20,9h-8v-8h8v8Zm-4-37c20,0,30,5,32,8s-9,6-22,7H224c-14-1-21-5-22-7S214,105,234,105Z"/><path d="M292,100v22h33V100c15-3,28-9,28-19s-23-21-45-21-45,6-45,21S276,98,292,100Zm20,9h-8v-8h8v8Zm-4-37c20,0,30,5,32,8s-9,6-22,7H299c-14-1-21-5-22-7S289,73,308,73Z"/></svg>
