<svg version="1.1" id="cube" xmlns="http://www.w3.org/2000/svg" xmlns:xlink="http://www.w3.org/1999/xlink" x="0px" y="0px"
	 viewBox="0 0 512 512" style="enable-background:new 0 0 512 512;" xml:space="preserve">
<style type="text/css">
	.st0{fill:none;stroke:#211915;stroke-width:10;stroke-miterlimit:10;}
	.st1{fill:none;stroke:#C23334;stroke-width:10;stroke-miterlimit:10;}
	.st2{fill:#C23334;}
	.st3{font-family:'ArialMT';}
	.st4{font-size:57.6px;}
	.st5{fill:none;stroke:#C23334;}
</style>
<rect x="130" y="23" class="st0" width="365" height="365.3"/>
<rect x="15" y="114" class="st0" width="365" height="365.3"/>
<line class="st0" x1="379" y1="116" x2="495" y2="23"/>
<line class="st0" x1="13" y1="114" x2="127" y2="23"/>
<line class="st1" x1="15" y1="480" x2="130" y2="388"/>
<line class="st0" x1="383" y1="480" x2="497" y2="388"/>
<line class="st1" x1="11" y1="479" x2="386" y2="479"/>
<text transform="matrix(1 0 0 1 210 459)" class="st2 st3 st4">a</text>
<text transform="matrix(1 0 0 1 210 459)" class="st5 st3 st4">a</text>
<text transform="matrix(1 0 0 1 50 399)" class="st2 st3 st4">b</text>
<text transform="matrix(1 0 0 1 50 399)" class="st5 st3 st4">b</text>
<text transform="matrix(1 0 0 1 34 276)" class="st2 st3 st4">h</text>
<text transform="matrix(1 0 0 1 34 276)" class="st5 st3 st4">h</text>
<line class="st1" x1="15" y1="480" x2="15" y2="113"/>
</svg>
