<svg version="1.1" id="surface" xmlns="http://www.w3.org/2000/svg" xmlns:xlink="http://www.w3.org/1999/xlink" x="0px" y="0px"
	 viewBox="0 0 512 512" style="enable-background:new 0 0 512 512;" xml:space="preserve">
<style type="text/css">
	.st0{font-family:'ArialMT';}
	.st1{font-size:150px;}
	.st2{font-size:70px;}
</style>
<path d="M413.6,331.4c0.6-1,0.8-2.1,0.8-3.2V83.1c-0.1-0.9-0.4-1.7-0.8-2.4l0,0c-8.1-32.4-78.5-56.6-165-56.6s-157,23.5-165,55.8
	l0,0c-0.4,0.7-0.7,1.5-0.8,2.4v42.9H35.8v6.5l0,0V151H1v6.5l0,0v229.8h10.5V161.5h24.3v209.5h10.5V161.5h36.4v166.7
	c0,1.1,0.2,2.3,0.8,3.2c8.1,32.4,77.7,56.6,165,56.6S405.5,363.8,413.6,331.4z M46.3,151v-15.4h36.4V151H46.3z M355.4,134.8v18.6
	l-32.4,6.5v-17L355.4,134.8z M323,169.6l32.4-6.5v15.4L323,185v-14.6V169.6z M323,195.5l32.4-6.5v15.4l-32.4,6.5v-14.6V195.5z
	 M323,221.4l32.4-6.5v15.4l-32.4,6.5v-14.6V221.4z M323,247.3l32.4-6.5v15.4l-32.4,6.5v-14.6V247.3z M323,273.2l32.4-6.5v15.4
	l-32.4,6.5V274V273.2z M323,299.1l32.4-6.5V308l-32.4,6.5v-14.6V299.1z M323,325l32.4-6.5v15.4l-32.4,6.5V325z M323,350.9l32.4-6.5
	v15.4l-32.4,8.1V350.9z M401.5,325.8L401.5,325.8c-1.6,9.7-14.6,20.2-35.6,29.1V131.6c15.4-5.7,27.5-12.9,35.6-20.2v215.2V325.8z
	 M94.9,83.9c4-22.7,67.2-47.7,153.7-47.7s148.9,24.3,152.1,47.7l0,0v2.4c0,23.5-62.3,50.2-152.9,50.2S94.9,110.6,94.9,86.3V83.9
	L94.9,83.9z M96.5,327.4L96.5,327.4v-216c22.7,21,74.4,38,152.9,38c21.4,0.2,42.7-1.1,63.9-4v224.9c-21.1,3.3-42.6,4.9-63.9,4.9
	C162,375.1,99.7,350.1,96.5,327.4z"/>
<path d="M189.5,70.1c-17.8,0-36.4,4.9-36.4,17s10.5,13.8,22.7,15.4v17.8h26.7v-17.8c12.1-2.4,22.7-7.3,22.7-15.4
	S206.5,70.1,189.5,70.1z M192.7,109.8h-6.5v-6.5h6.5V109.8z M197.6,92.8h-16.2c-11.3-0.8-17-4-17.8-5.7c-0.8-1.6,9.7-6.5,25.9-6.5
	s24.3,4,25.9,6.5c1.6,2.4-7.3,4.9-18.6,5.7H197.6z"/>
<path d="M249.4,44.2c-17.8,0-36.4,4.9-36.4,17s10.5,13.8,22.7,15.4v17.8h26.7V76.6c12.1-2.4,22.7-7.3,22.7-15.4
	S267.2,44.2,249.4,44.2z M252.6,83.9h-6.5v-6.5h6.5V83.9z M257.5,66.9h-15.4c-11.3-0.8-17-4-17.8-5.7c-0.8-1.6,9.7-6.5,25.9-6.5
	c16.2,0,24.3,4,25.9,6.5C277.7,63.6,268,66.1,257.5,66.9z"/>
<text transform="matrix(1 0 0 1 363 483.5)" class="st0 st1">m</text>
<text transform="matrix(1 0 0 1 478 436.5)" class="st0 st2">2</text>
</svg>
