<?xml version="1.0" encoding="utf-8"?>
<!-- Generator: Adobe Illustrator 22.0.1, SVG Export Plug-In . SVG Version: 6.00 Build 0)  -->
<svg version="1.1" id="surface" xmlns="http://www.w3.org/2000/svg" xmlns:xlink="http://www.w3.org/1999/xlink" x="0px" y="0px"
	 viewBox="0 0 512 512" style="enable-background:new 0 0 512 512;" xml:space="preserve">
<title>surface</title>
<path d="M511,415c0.7-1.2,1-2.6,1-4V108c-0.1-1.1-0.5-2.1-1-3l0,0c-10-40-97-70-204-70s-194,29-204,69l0,0c-0.5,0.9-0.9,1.9-1,3v53
	H44v8l0,0v24H1v8l0,0v284h13V205h30v259h13V205h45v206c0,1.4,0.3,2.8,1,4c10,40,96,70,204,70S501,455,511,415z M57,192v-19h45v19H57
	z M439,172v23l-40,8v-21L439,172z M399,215l40-8v19l-40,8v-18V215z M399,247l40-8v19l-40,8v-18V247z M399,279l40-8v19l-40,8v-18V279
	z M399,311l40-8v19l-40,8v-18V311z M399,343l40-8v19l-40,8v-18V343z M399,375l40-8v19l-40,8v-18V375z M399,407l40-8v19l-40,8V407z
	 M399,439l40-8v19l-40,10V439z M496,408L496,408c-2,12-18,25-44,36V168c19-7,34-16,44-25v266V408z M117,109c5-28,83-59,190-59
	s184,30,188,59l0,0v3c0,29-77,62-189,62s-189-32-189-62V109L117,109z M119,410L119,410V143c28,26,92,47,189,47
	c26.4,0.3,52.8-1.4,79-5v278c-26.1,4.1-52.6,6.1-79,6C200,469,123,438,119,410z"/>
<path d="M234,92c-22,0-45,6-45,21s13,17,28,19v22h33v-22c15-3,28-9,28-19S255,92,234,92z M238,141h-8v-8h8V141z M244,120h-20
	c-14-1-21-5-22-7s12-8,32-8s30,5,32,8s-9,6-23,7H244z"/>
<path d="M308,60c-22,0-45,6-45,21s13,17,28,19v22h33v-22c15-3,28-9,28-19S330,60,308,60z M312,109h-8v-8h8V109z M318,88h-19
	c-14-1-21-5-22-7s12-8,32-8s30,5,32,8S331,87,318,88z"/>
</svg>
