<svg id="surface-insulate" xmlns="http://www.w3.org/2000/svg" viewBox="0 0 512 512"><path d="M511,105h0c-10-40-97-70-204-70S113,64,103,104h0a8,8,0,0,0-1,3v53H44v8h0v24H1v8H1V484H14V205H44V464H57V205h45V411a8,8,0,0,0,1,4c10,40,96,70,204,70s194-30,204-70a8,8,0,0,0,1-4V108A8,8,0,0,0,511,105ZM102,192H57V173h45v19Zm189,14-11-17h15Zm-29-18,24,38-2,8-13,5-33-53Zm-45-5,39,61-22,8-3,5-53-83Zm-62-17,67,106-11,19-10-2L119,154h0V143C127,151,140,159,156,165ZM141,338l-22-36V259l37,58-8,16Zm-12,10-11,9V331Zm34-47-43-69h-1V182l64,104-12-2ZM386,463a504,504,0,0,1-79,6c-107,0-184-30-188-59h0V376l41-33,20-42,41,7,25-43,52-19,15-56a535,535,0,0,0,74-5V463Zm53-13-40,10V439l40-8v19Zm0-32-40,8V407l40-8v19Zm0-32-40,8V376l40-8v19Zm0-32-40,8V344l40-8v19Zm0-32-40,8V312l40-8v19Zm0-32-40,8V280l40-8v19Zm0-32-40,8V248l40-8v19Zm0-32-40,8V216l40-8v19Zm0-32-40,8V182l40-10v23Zm57,214h0c-2,12-18,25-44,36V168c19-7,34-16,44-25V409ZM307,173c-111,0-189-32-189-62v-3h0c5-28,81-59,188-59s184,30,188,59h0v3C496,141,418,173,307,173Z"/><path d="M234,92c-22,0-45,6-45,21s13,17,28,19v22h33V132c15-3,28-9,28-19S255,92,234,92Zm4,49h-8v-8h8v8Zm6-21H224c-14-1-21-5-22-7s12-8,32-8,30,5,32,8S257,119,243,120Z"/><path d="M308,60c-22,0-45,6-45,21s13,17,28,19v22h33V100c15-3,28-9,28-19S330,60,308,60Zm4,49h-8v-8h8v8Zm6-21H299c-14-1-21-5-22-7s12-8,32-8,30,5,32,8S331,87,318,88Z"/></svg>
