<svg version="1.1" id="flange" xmlns="http://www.w3.org/2000/svg" xmlns:xlink="http://www.w3.org/1999/xlink" x="0px" y="0px"
	 viewBox="0 0 512 512" style="enable-background:new 0 0 512 512;" xml:space="preserve">
<ellipse cx="280" cy="251" rx="8" ry="19"/>
<ellipse cx="244" cy="147" rx="8" ry="19"/>
<ellipse cx="244" cy="365" rx="8" ry="19"/>
<path d="M475,152h-37v3l-10-18c-21-33-50-51-80-51h-50l-21,3c-6.8-2-13.9-3-21-3h-51c-18,0-37,8-52,20s-27,28-37,48H45
	c-27,2-42,54-42,104s15,99,41,104h74c21,41,54,65,88,65h50c7.1,0,14.2-1,21-3c6.8,2,13.9,3,21,3h50c30,0,59-19,80-51l9-16v3h36v-2h1
	c4-1,35-20,35-105S476,153,475,152z M206,167c6,5,37,23,37,93s-31,86-36,89H71c14-19,22-56,22-91s-8-72-22-91H206z M18,259
	c0-57,17-91,30-91l0,0c13,0,30,35,30,92s-15,84-26,90h-8C33,343,18,310,18,259z M132,363h24v1c0,11,4,19,8,19s8-9,8-19s0-1,0-1h38
	v-2h1c4-1,46-17,46-102s-44-105-45-106h-40c0.1-2,0.1-4,0-6c0-10-4-19-8-19s-8,9-8,19c-0.1,2-0.1,4,0,6h-26c19-34,47-55,76-55
	c55,0,100,72,100,160s-39,149-89,158h-11C178,417,151,397,132,363z M246,416c15-9,28-23,39-40c21-32,32-75,32-120s-11-87-32-120
	c-11-17-23-29-37-38h8c55,0,100,71,100,159s-45,159-100,159H246z M298,416c14-9,28-22,39-39c21-32,32-75,32-120s-11-87-32-120
	c-11-17-24-30-38-39l0,0c55,0,101,71,101,159s-46,159-101,159h-2H298z M349,416h-9c15-9,28-22,39-39c21-32,32-75,32-120
	s-11-87-32-120c-11-17-24-30-38-39h8c55,0,100,71,100,159s-46,159-101,159H349z M470,350h-28c12-27,18-60,18-93s-6-64-17-91h26
	c5,5,26,22,26,92s-21,89-26,92H470z"/>
<path d="M73,260c0-29-8-60-25-60s-25,31-25,60s8,60,25,60S73,289,73,260z M37,260c0-29,8-44,11-46s11,17,11,46
	s-8,48-11,46S37,289,37,260z"/>
</svg>
