<svg version="1.1" id="hot-surface" xmlns="http://www.w3.org/2000/svg" xmlns:xlink="http://www.w3.org/1999/xlink" x="0px"
	 y="0px" viewBox="0 0 512 512" style="enable-background:new 0 0 512 512;" xml:space="preserve">
<path d="M45,468c-17,0-25-31-25-60s8-60,25-60s25,31,25,60S62,468,45,468z M45,362c-3,2-11,17-11,46s8,44,11,46
	s11-17,11-46S48,364,45,362z"/>
<path d="M472,300H43c-28,3-43,57-43,107s16,105,45,105h425c0,0,36-21,36-106S473,301,472,300z M45,497
	c-12,0-33-32-33-89s20-92,33-92s30,35,30,92S57,497,45,497z M466,498H68c15-19,22-56,22-92s-8-73-23-92h399c5,5,26,23,26,93
	S471,495,466,498z"/>
<path d="M487,161V38c0-21-17-38-38-38s-38,17-38,38v123c-27.8,21-33.2,60.5-12.2,88.2c21,27.8,60.5,33.2,88.2,12.2
	s33.2-60.5,12.2-88.2C495.7,168.6,491.6,164.5,487,161z M449,257c-25.4,0.3-46.3-20-46.6-45.4c-0.2-16.1,8-31.1,21.6-39.6
	c2.5-1.4,4-4.1,4-7V38c2.6-11.9,14.3-19.4,26.2-16.8c8.4,1.8,15,8.4,16.8,16.8v127c0,2.9,1.5,5.6,4,7c21.6,13.4,28.1,41.8,14.7,63.4
	C481,249.3,465.5,257.6,449,257z"/>
<path d="M458,185V76c0-4.4-3.6-8-8-8s-8,3.6-8,8v109c-14.2,4.4-22.2,19.5-17.8,33.8s19.5,22.2,33.8,17.8
	c14.2-4.4,22.2-19.5,17.8-33.8C473.2,194.3,466.5,187.6,458,185z"/>
</svg>
